#!OML:ASF X:\für Bonn\!DataBase\2005_08_12_Daniel\c3d\Daniel.ASF
:FULLY-SPECIFIED
:DEGREES
46
root 1.4014 16.8997 -0.498371 -335.966 -86.201 328.743
lowerback 22.458 -1.76803 5.73946
upperback 4.67882 -1.41356 -1.39963
thorax -7.54549 -0.940237 -4.40089
lowerneck -5.89141 0.125169 -0.798655
upperneck -0.982086 0.196972 -1.95019
head 0.672227 0.0584249 -0.460417
rclavicle -1.48095e-014 1.19271e-015
rhumerus -222.096 -205.003 72.2623
rradius 64.6885
rwrist 11.3364
rhand -20.4327 9.14659
rfingers 7.12502
rthumb 5.92208 -20.7507
lclavicle -1.48095e-014 1.19271e-015
lhumerus -221.878 190.649 -79.4263
lradius 80.1552
lwrist 6.01462
lhand -14.622 363.217
lfingers 7.12502
lthumb 11.5293 32.8804
rfemur -0.512688 24.9946 26.7688
rtibia 31.8226
rfoot -49.2557 -27.628
rtoes -6.67506
lfemur -20.8832 -12.2601 -8.51506
ltibia 45.72
lfoot -18.2217 -0.381653
ltoes -0.0418522
47
root 1.41605 16.9014 -0.497984 -333.327 -86.4954 326.178
lowerback 22.6329 -1.82213 5.69633
upperback 4.73265 -1.49091 -1.3857
thorax -7.58523 -0.979256 -4.33677
lowerneck -5.94667 0.301251 -0.756499
upperneck -1.27583 0.419792 -2.06759
head 0.592057 0.168714 -0.497939
rclavicle -2.68359e-015 -1.19271e-015
rhumerus -222.405 -203.783 72.658
rradius 65.0218
rwrist 12.2558
rhand -20.3154 8.75838
rfingers 7.12502
rthumb 6.03533 -21.1357
lclavicle -2.68359e-015 -1.19271e-015
lhumerus -222.319 190.447 -79.4543
lradius 80.3661
lwrist 7.03693
lhand -15.443 363.179
lfingers 7.12502
lthumb 10.7375 32.885
rfemur -1.01067 24.2645 26.385
rtibia 32.0453
rfoot -47.9775 -27.4426
rtoes -6.43181
lfemur -20.7175 -11.9144 -8.68046
ltibia 46.0253
lfoot -18.3596 -0.390157
ltoes -0.251335
48
root 1.43028 16.9016 -0.497345 -330.917 -86.7502 323.83
lowerback 22.8101 -1.89155 5.63753
upperback 4.79384 -1.59339 -1.38265
thorax -7.62065 -1.02997 -4.26792
lowerneck -5.89579 0.482573 -0.691127
upperneck -1.64765 0.643933 -2.20842
head 0.470815 0.2807 -0.546621
rclavicle 1.88845e-015 1.86858e-014
rhumerus -222.777 -202.562 73.0474
rradius 65.4716
rwrist 13.1446
rhand -20.1867 8.40794
rfingers 7.12502
rthumb 6.15955 -21.4825
lclavicle 1.88845e-015 1.86858e-014
lhumerus -222.815 190.269 -79.4911
lradius 80.6074
lwrist 8.07588
lhand -16.2323 363.151
lfingers 7.12502
lthumb 9.97601 32.8946
rfemur -1.45468 23.6902 26.0608
rtibia 32.2744
rfoot -46.955 -27.2778
rtoes -6.24384
lfemur -20.5431 -11.5855 -8.86775
ltibia 46.316
lfoot -18.4984 -0.435124
ltoes -0.375457
49
root 1.44219 16.9006 -0.495394 -327.997 -86.9598 320.998
lowerback 22.9346 -1.9634 5.57936
upperback 4.87123 -1.70018 -1.35074
thorax -7.60991 -1.08102 -4.16651
lowerneck -5.83297 0.660557 -0.624559
upperneck -2.04874 0.861107 -2.38619
head 0.339847 0.389107 -0.607508
rclavicle 1.39149e-014 1.27222e-014
rhumerus -223.104 -201.447 73.456
rradius 65.8935
rwrist 14.0292
rhand -20.1246 8.00326
rfingers 7.12502
rthumb 6.21955 -21.8854
lclavicle 1.39149e-014 1.27222e-014
lhumerus -223.259 190.034 -79.4654
lradius 80.802
lwrist 9.06123
lhand -16.9805 363.153
lfingers 7.12502
lthumb 9.25415 32.93
rfemur -1.90494 23.1539 25.7782
rtibia 32.5071
rfoot -46.0094 -27.1299
rtoes -6.03937
lfemur -20.3849 -11.2766 -9.02357
ltibia 46.5785
lfoot -18.6779 -0.464991
ltoes -0.309413
50
root 1.45288 16.901 -0.493509 -325.539 -87.1611 318.634
lowerback 23.0857 -2.03289 5.48757
upperback 4.93059 -1.81065 -1.33564
thorax -7.63266 -1.13428 -4.06253
lowerneck -5.74731 0.828387 -0.576369
upperneck -2.4476 1.06486 -2.52458
head 0.206343 0.491785 -0.654217
rclavicle -4.96962e-015 -1.98785e-015
rhumerus -223.521 -200.318 73.8581
rradius 66.4466
rwrist 14.7919
rhand -20.059 7.70329
rfingers 7.12502
rthumb 6.28286 -22.1835
lclavicle -4.96962e-015 -1.98785e-015
lhumerus -223.748 189.83 -79.4293
lradius 81.0227
lwrist 10.0154
lhand -17.6377 363.177
lfingers 7.12502
lthumb 8.61998 32.9811
rfemur -2.35183 22.5416 25.4476
rtibia 32.7338
rfoot -45.0861 -26.888
rtoes -6.07275
lfemur -20.2327 -11.0223 -9.21653
ltibia 46.7977
lfoot -18.8437 -0.421061
ltoes -0.397325
51
root 1.46325 16.9017 -0.48999 -322.416 -87.3497 315.629
lowerback 23.2512 -2.10883 5.41149
upperback 4.98198 -1.92496 -1.32328
thorax -7.67202 -1.19016 -3.96879
lowerneck -5.74563 1.00744 -0.502827
upperneck -2.80456 1.28286 -2.6868
head 0.100949 0.60018 -0.712651
rclavicle -9.83984e-015 -5.1684e-015
rhumerus -223.973 -199.236 74.2491
rradius 67.0842
rwrist 15.5553
rhand -20.0109 7.4602
rfingers 7.12502
rthumb 6.32933 -22.4252
lclavicle -9.83984e-015 -5.1684e-015
lhumerus -224.212 189.624 -79.3941
lradius 81.2673
lwrist 10.8812
lhand -18.2382 363.228
lfingers 7.12502
lthumb 8.04042 33.0555
rfemur -2.81377 21.9245 25.1166
rtibia 32.9401
rfoot -44.1916 -26.5718
rtoes -6.11021
lfemur -20.1132 -10.8149 -9.38658
ltibia 46.9683
lfoot -19.0315 -0.287776
ltoes -0.294699
52
root 1.47319 16.9036 -0.484636 -318.879 -87.5505 312.2
lowerback 23.4499 -2.18002 5.31353
upperback 5.0407 -2.03805 -1.31228
thorax -7.71925 -1.24547 -3.86338
lowerneck -5.82022 1.18867 -0.428047
upperneck -3.15149 1.503 -2.85242
head 0.0118252 0.708616 -0.772593
rclavicle 4.07509e-015 -6.75868e-015
rhumerus -224.48 -198.222 74.6492
rradius 67.8297
rwrist 16.2859
rhand -19.9283 7.25888
rfingers 7.12502
rthumb 6.409 -22.6242
lclavicle 4.07509e-015 -6.75868e-015
lhumerus -224.655 189.418 -79.3431
lradius 81.5039
lwrist 11.7323
lhand -18.8018 363.323
lfingers 7.12502
lthumb 7.49647 33.1705
rfemur -3.27015 21.1607 24.7356
rtibia 33.1246
rfoot -43.1019 -26.2455
rtoes -6.29416
lfemur -19.9767 -10.6459 -9.57108
ltibia 47.0803
lfoot -19.2226 -0.0635458
ltoes -0.178888
53
root 1.48329 16.9072 -0.47779 -314.785 -87.7192 308.236
lowerback 23.6451 -2.25695 5.23074
upperback 5.08773 -2.15432 -1.30137
thorax -7.77766 -1.30268 -3.76523
lowerneck -5.92386 1.38046 -0.30276
upperneck -3.46791 1.73404 -3.05689
head -0.0615537 0.821213 -0.853035
rclavicle 1.11319e-014 1.15295e-014
rhumerus -225.018 -197.298 75.0449
rradius 68.6119
rwrist 16.9659
rhand -19.9148 7.17834
rfingers 7.12502
rthumb 6.42202 -22.7043
lclavicle 1.11319e-014 1.15295e-014
lhumerus -225.128 189.244 -79.2976
lradius 81.7399
lwrist 12.5288
lhand -19.2697 363.41
lfingers 7.12502
lthumb 7.04478 33.2723
rfemur -3.73475 20.3622 24.3543
rtibia 33.2824
rfoot -42.0633 -25.8123
rtoes -6.35014
lfemur -19.8682 -10.4975 -9.74184
ltibia 47.1515
lfoot -19.4545 0.257975
ltoes -0.102513
54
root 1.49277 16.9106 -0.469157 -309.921 -87.8804 303.498
lowerback 23.8332 -2.33161 5.15095
upperback 5.14233 -2.2686 -1.29464
thorax -7.8234 -1.35872 -3.6737
lowerneck -6.04568 1.56959 -0.172179
upperneck -3.79878 1.95879 -3.27438
head -0.135639 0.930136 -0.938976
rclavicle 3.08116e-015 -2.70347e-014
rhumerus -225.586 -196.427 75.4533
rradius 69.4459
rwrist 17.6552
rhand -19.9045 7.12956
rfingers 7.12502
rthumb 6.43204 -22.7528
lclavicle 3.08116e-015 -2.70347e-014
lhumerus -225.648 189.096 -79.2264
lradius 82.0064
lwrist 13.3087
lhand -19.7271 363.52
lfingers 7.12502
lthumb 6.60324 33.3971
rfemur -4.19068 19.5104 23.961
rtibia 33.4186
rfoot -40.993 -25.3228
rtoes -6.49594
lfemur -19.7424 -10.3803 -9.92135
ltibia 47.1816
lfoot -19.7359 0.612478
ltoes -0.214012
55
root 1.50186 16.9153 -0.45896 -304.3 -88.0264 298.024
lowerback 23.9898 -2.40869 5.07042
upperback 5.1879 -2.38749 -1.29448
thorax -7.86316 -1.41659 -3.58763
lowerneck -6.10103 1.76435 -0.0262037
upperneck -4.15698 2.18768 -3.48828
head -0.228124 1.04192 -1.02756
rclavicle -2.0773e-014 1.66979e-014
rhumerus -226.205 -195.638 75.8368
rradius 70.3331
rwrist 18.3079
rhand -19.8299 7.09789
rfingers 7.12502
rthumb 6.50401 -22.7822
lclavicle -2.0773e-014 1.66979e-014
lhumerus -226.208 188.945 -79.1603
lradius 82.2442
lwrist 14.0426
lhand -20.0709 363.527
lfingers 7.12502
lthumb 6.2714 33.414
rfemur -4.65077 18.6023 23.5587
rtibia 33.5331
rfoot -39.857 -24.8259
rtoes -6.69802
lfemur -19.6436 -10.2654 -10.1046
ltibia 47.185
lfoot -20.0535 1.02704
ltoes -0.449343
56
root 1.51054 16.921 -0.448184 -298.306 -88.1615 292.176
lowerback 24.148 -2.47731 4.96635
upperback 5.22969 -2.50117 -1.29605
thorax -7.90619 -1.47149 -3.49106
lowerneck -6.06354 1.95612 0.152382
upperneck -4.57002 2.40577 -3.75046
head -0.351173 1.14921 -1.13904
rclavicle -1.77912e-014 8.34896e-015
rhumerus -226.849 -194.893 76.22
rradius 71.2415
rwrist 18.9404
rhand -19.7143 7.0637
rfingers 7.12502
rthumb 6.61558 -22.813
lclavicle -1.77912e-014 8.34896e-015
lhumerus -226.757 188.844 -79.0714
lradius 82.466
lwrist 14.7925
lhand -20.4358 363.682
lfingers 7.12502
lthumb 5.91906 33.5791
rfemur -5.10078 17.7112 23.1489
rtibia 33.6401
rfoot -38.7907 -24.3041
rtoes -6.89033
lfemur -19.5493 -10.1636 -10.3092
ltibia 47.1599
lfoot -20.4075 1.49699
ltoes -0.939245
57
root 1.51911 16.9264 -0.435819 -291.494 -88.2608 285.529
lowerback 24.3069 -2.54052 4.89132
upperback 5.26492 -2.60067 -1.30215
thorax -7.95613 -1.52023 -3.4201
lowerneck -6.05596 2.13197 0.316177
upperneck -4.98351 2.60239 -3.98422
head -0.470173 1.24551 -1.24047
rclavicle -2.48481e-015 1.11319e-014
rhumerus -227.541 -194.194 76.6017
rradius 72.2084
rwrist 19.4768
rhand -19.589 7.00434
rfingers 7.12502
rthumb 6.7366 -22.8685
lclavicle -2.48481e-015 1.11319e-014
lhumerus -227.283 188.801 -78.9855
lradius 82.6318
lwrist 15.5543
lhand -20.6847 363.78
lfingers 7.12502
lthumb 5.67882 33.6837
rfemur -5.55494 16.7788 22.7492
rtibia 33.7386
rfoot -37.6972 -23.7131
rtoes -7.13435
lfemur -19.4811 -10.11 -10.4902
ltibia 47.1142
lfoot -20.7867 1.93873
ltoes -1.22121
